<?xml version="1.0" encoding="UTF-8" standalone="no"?><!DOCTYPE svg PUBLIC "-//W3C//DTD SVG 1.1//EN" "http://www.w3.org/Graphics/SVG/1.1/DTD/svg11.dtd"><svg width="100%" height="100%" viewBox="0 0 60 28" version="1.1" xmlns="http://www.w3.org/2000/svg" xmlns:xlink="http://www.w3.org/1999/xlink" xml:space="preserve" xmlns:serif="http://www.serif.com/" style="fill-rule:evenodd;clip-rule:evenodd;stroke-linejoin:round;stroke-miterlimit:2;"><path d="M60,14c-0,0 -10.761,10.761 -13.414,13.414c-0.375,0.375 -0.884,0.586 -1.414,0.586c-4.489,0 -25.855,0 -30.344,0c-0.53,-0 -1.039,-0.211 -1.414,-0.586c-2.241,-2.241 -10.269,-10.269 -12.707,-12.707c-0.39,-0.39 -0.39,-1.024 0,-1.414c2.438,-2.438 10.466,-10.466 12.707,-12.707c0.375,-0.375 0.884,-0.586 1.414,-0.586c4.489,-0 25.855,-0 30.344,-0c0.53,0 1.039,0.211 1.414,0.586c2.653,2.653 13.414,13.414 13.414,13.414Z" style="fill:#fff;"/></svg>